# xmcd
#
# Track frame offsets:
# 150
# 12429
# 27135
# 40645
# 52601
# 65607
# 80866
# 93151
# 110293
# 126225
# 140435
# 152827
# 173004
# 187719
# 203920
# 219278
# 236577
# 252018
# 266406
# 282269
#
# Disc length: 3962 seconds
#
#
# Revision: 0
# Processed by: cddbd v1.5.1PL2 Copyright (c) Steve Scherf et al.
# Submitted via: FreeRIP 2.944 
#
DISCID=040f7814
DTITLE=Various Artist - Country Fire - CD 1
DYEAR=1900
DGENRE=Country
TTITLE0=Johnny Cash - Ring og Fire
TTITLE1=Dolly Parton - Hungry again
TTITLE2=Tom Astor - Kleiner Rebell
TTITLE3=Dagmar - Pures Gold
TTITLE4=Don Williams - Lay down beside me
TTITLE5=Gunter Gabriel - Truck Stop, Tom Astor und ich
TTITLE6=Kenny Rogers - Elvira
TTITLE7=Jonny Hill - Das hab ich beim Friseur gehört
TTITLE8=Truck Stop - Ich möcht so gern Dave Duddley hörn
TTITLE9=Iris McCollins - Liebeskrank
TTITLE10=Johnny Cash - Sixteen Tons
TTITLE11=Dolly Parton - Honky Tonk Songs
TTITLE12=Greyhounds - Dank Gott für das Radio
TTITLE13=Tom Astor - Junger Adler
TTITLE14=Linda Feller - Pustekuchen
TTITLE15=Gunter Gabriel - Komm unter meine Decke
TTITLE16=Kenny Rogers - For the good times
TTITLE17=Don Williams - Amanda
TTITLE18=Jonny Hill - Jambalaya
TTITLE19=Truck Stop - Easy Rider
EXTD=
EXTT0=
EXTT1=
EXTT2=
EXTT3=
EXTT4=
EXTT5=
EXTT6=
EXTT7=
EXTT8=
EXTT9=
EXTT10=
EXTT11=
EXTT12=
EXTT13=
EXTT14=
EXTT15=
EXTT16=
EXTT17=
EXTT18=
EXTT19=
PLAYORDER=
